<mxfile host="app.diagrams.net" modified="2022-04-19T03:23:28.026Z" agent="5.0 (Macintosh; Intel Mac OS X 10_15_7) AppleWebKit/537.36 (KHTML, like Gecko) Chrome/99.0.4844.83 Safari/537.36" etag="zX9hV_5VuXXp56aWOJRg" version="17.4.5" type="github" pages="2">
  <diagram id="28fC2cq_Yyv4W91j2OsO" name="Page-1">
    <mxGraphModel dx="2013" dy="614" grid="1" gridSize="10" guides="1" tooltips="1" connect="1" arrows="1" fold="1" page="1" pageScale="1" pageWidth="827" pageHeight="1169" math="0" shadow="0">
      <root>
        <mxCell id="0" />
        <mxCell id="1" parent="0" />
        <mxCell id="rWhO7y_RlSuzqx9vtNS4-5" value="" style="edgeStyle=orthogonalEdgeStyle;rounded=0;orthogonalLoop=1;jettySize=auto;html=1;" parent="1" source="rWhO7y_RlSuzqx9vtNS4-2" target="rWhO7y_RlSuzqx9vtNS4-4" edge="1">
          <mxGeometry relative="1" as="geometry" />
        </mxCell>
        <mxCell id="rWhO7y_RlSuzqx9vtNS4-2" value="iavl.Store" style="rounded=0;whiteSpace=wrap;html=1;" parent="1" vertex="1">
          <mxGeometry x="260" y="319" width="120" height="60" as="geometry" />
        </mxCell>
        <mxCell id="rWhO7y_RlSuzqx9vtNS4-48" style="edgeStyle=orthogonalEdgeStyle;rounded=0;orthogonalLoop=1;jettySize=auto;html=1;entryX=0;entryY=0.5;entryDx=0;entryDy=0;entryPerimeter=0;fontSize=12;fontColor=#000000;" parent="1" source="rWhO7y_RlSuzqx9vtNS4-4" target="rWhO7y_RlSuzqx9vtNS4-47" edge="1">
          <mxGeometry relative="1" as="geometry" />
        </mxCell>
        <mxCell id="rWhO7y_RlSuzqx9vtNS4-4" value="&lt;font style=&quot;font-size: 12px&quot;&gt;iavl.&lt;span style=&quot;font-family: &amp;#34;jetbrains mono&amp;#34; , monospace&quot;&gt;MutableTree&lt;/span&gt;&lt;/font&gt;" style="rounded=0;whiteSpace=wrap;html=1;" parent="1" vertex="1">
          <mxGeometry x="460" y="319" width="120" height="60" as="geometry" />
        </mxCell>
        <mxCell id="rWhO7y_RlSuzqx9vtNS4-8" value="CommitKVStoreCache" style="swimlane;fontStyle=0;childLayout=stackLayout;horizontal=1;startSize=26;fillColor=#e1d5e7;horizontalStack=0;resizeParent=1;resizeParentMax=0;resizeLast=0;collapsible=1;marginBottom=0;labelBackgroundColor=none;fontSize=12;strokeColor=#9673a6;" parent="1" vertex="1">
          <mxGeometry x="20" y="310" width="140" height="78" as="geometry" />
        </mxCell>
        <mxCell id="rWhO7y_RlSuzqx9vtNS4-9" value="+ store: CommitKVStore" style="text;strokeColor=none;fillColor=none;align=left;verticalAlign=top;spacingLeft=4;spacingRight=4;overflow=hidden;rotatable=0;points=[[0,0.5],[1,0.5]];portConstraint=eastwest;labelBackgroundColor=none;fontSize=12;fontColor=#000000;" parent="rWhO7y_RlSuzqx9vtNS4-8" vertex="1">
          <mxGeometry y="26" width="140" height="26" as="geometry" />
        </mxCell>
        <mxCell id="rWhO7y_RlSuzqx9vtNS4-10" value="+ cache: LRU" style="text;strokeColor=none;fillColor=none;align=left;verticalAlign=top;spacingLeft=4;spacingRight=4;overflow=hidden;rotatable=0;points=[[0,0.5],[1,0.5]];portConstraint=eastwest;labelBackgroundColor=none;fontSize=12;fontColor=#000000;" parent="rWhO7y_RlSuzqx9vtNS4-8" vertex="1">
          <mxGeometry y="52" width="140" height="26" as="geometry" />
        </mxCell>
        <mxCell id="rWhO7y_RlSuzqx9vtNS4-12" style="edgeStyle=orthogonalEdgeStyle;rounded=0;orthogonalLoop=1;jettySize=auto;html=1;exitX=1;exitY=0.5;exitDx=0;exitDy=0;entryX=0;entryY=0.5;entryDx=0;entryDy=0;fontSize=12;fontColor=#000000;" parent="1" source="rWhO7y_RlSuzqx9vtNS4-9" target="rWhO7y_RlSuzqx9vtNS4-2" edge="1">
          <mxGeometry relative="1" as="geometry" />
        </mxCell>
        <mxCell id="rWhO7y_RlSuzqx9vtNS4-17" value="rootMulti.Store" style="swimlane;fontStyle=0;childLayout=stackLayout;horizontal=1;startSize=26;fillColor=none;horizontalStack=0;resizeParent=1;resizeParentMax=0;resizeLast=0;collapsible=1;marginBottom=0;labelBackgroundColor=none;fontSize=12;fontColor=#000000;" parent="1" vertex="1">
          <mxGeometry x="20" y="190" width="150" height="78" as="geometry" />
        </mxCell>
        <mxCell id="rWhO7y_RlSuzqx9vtNS4-18" value="+ stores: CommitKVStore" style="text;strokeColor=none;fillColor=none;align=left;verticalAlign=top;spacingLeft=4;spacingRight=4;overflow=hidden;rotatable=0;points=[[0,0.5],[1,0.5]];portConstraint=eastwest;labelBackgroundColor=none;fontSize=12;fontColor=#000000;" parent="rWhO7y_RlSuzqx9vtNS4-17" vertex="1">
          <mxGeometry y="26" width="150" height="26" as="geometry" />
        </mxCell>
        <mxCell id="rWhO7y_RlSuzqx9vtNS4-20" value="+ ......" style="text;strokeColor=none;fillColor=none;align=left;verticalAlign=top;spacingLeft=4;spacingRight=4;overflow=hidden;rotatable=0;points=[[0,0.5],[1,0.5]];portConstraint=eastwest;labelBackgroundColor=none;fontSize=12;fontColor=#000000;" parent="rWhO7y_RlSuzqx9vtNS4-17" vertex="1">
          <mxGeometry y="52" width="150" height="26" as="geometry" />
        </mxCell>
        <mxCell id="rWhO7y_RlSuzqx9vtNS4-22" style="edgeStyle=orthogonalEdgeStyle;rounded=0;orthogonalLoop=1;jettySize=auto;html=1;entryX=0.5;entryY=0;entryDx=0;entryDy=0;fontSize=12;fontColor=#000000;" parent="1" source="rWhO7y_RlSuzqx9vtNS4-21" target="rWhO7y_RlSuzqx9vtNS4-17" edge="1">
          <mxGeometry relative="1" as="geometry" />
        </mxCell>
        <mxCell id="rWhO7y_RlSuzqx9vtNS4-21" value="«interface»&lt;br&gt;&lt;b&gt;CommitMultiStore&lt;/b&gt;" style="html=1;labelBackgroundColor=none;fontSize=12;fontColor=#000000;" parent="1" vertex="1">
          <mxGeometry x="40" y="110" width="110" height="50" as="geometry" />
        </mxCell>
        <mxCell id="rWhO7y_RlSuzqx9vtNS4-23" style="edgeStyle=orthogonalEdgeStyle;rounded=0;orthogonalLoop=1;jettySize=auto;html=1;entryX=1.007;entryY=0.147;entryDx=0;entryDy=0;fontSize=12;fontColor=#000000;exitX=1;exitY=0.5;exitDx=0;exitDy=0;entryPerimeter=0;" parent="1" source="rWhO7y_RlSuzqx9vtNS4-18" target="rWhO7y_RlSuzqx9vtNS4-8" edge="1">
          <mxGeometry relative="1" as="geometry" />
        </mxCell>
        <mxCell id="rWhO7y_RlSuzqx9vtNS4-26" style="edgeStyle=orthogonalEdgeStyle;rounded=0;orthogonalLoop=1;jettySize=auto;html=1;entryX=0.5;entryY=0;entryDx=0;entryDy=0;fontSize=12;fontColor=#000000;" parent="1" source="rWhO7y_RlSuzqx9vtNS4-25" target="rWhO7y_RlSuzqx9vtNS4-21" edge="1">
          <mxGeometry relative="1" as="geometry" />
        </mxCell>
        <mxCell id="rWhO7y_RlSuzqx9vtNS4-25" value="app.cms" style="ellipse;whiteSpace=wrap;html=1;aspect=fixed;labelBackgroundColor=none;fontSize=12;fontColor=#000000;" parent="1" vertex="1">
          <mxGeometry x="55" width="80" height="80" as="geometry" />
        </mxCell>
        <mxCell id="rWhO7y_RlSuzqx9vtNS4-29" value="" style="edgeStyle=orthogonalEdgeStyle;rounded=0;orthogonalLoop=1;jettySize=auto;html=1;fontSize=12;fontColor=#000000;" parent="1" source="rWhO7y_RlSuzqx9vtNS4-27" target="rWhO7y_RlSuzqx9vtNS4-28" edge="1">
          <mxGeometry relative="1" as="geometry" />
        </mxCell>
        <mxCell id="rWhO7y_RlSuzqx9vtNS4-27" value="ApplyBlock" style="rounded=0;whiteSpace=wrap;html=1;labelBackgroundColor=none;fontSize=12;fontColor=#000000;" parent="1" vertex="1">
          <mxGeometry x="-560" y="502.99" width="120" height="60" as="geometry" />
        </mxCell>
        <mxCell id="rWhO7y_RlSuzqx9vtNS4-31" value="" style="edgeStyle=orthogonalEdgeStyle;rounded=0;orthogonalLoop=1;jettySize=auto;html=1;fontSize=12;fontColor=#000000;" parent="1" source="rWhO7y_RlSuzqx9vtNS4-28" target="rWhO7y_RlSuzqx9vtNS4-30" edge="1">
          <mxGeometry relative="1" as="geometry" />
        </mxCell>
        <mxCell id="rWhO7y_RlSuzqx9vtNS4-42" value="" style="edgeStyle=orthogonalEdgeStyle;rounded=0;orthogonalLoop=1;jettySize=auto;html=1;fontSize=12;fontColor=#000000;" parent="1" source="rWhO7y_RlSuzqx9vtNS4-28" target="rWhO7y_RlSuzqx9vtNS4-41" edge="1">
          <mxGeometry relative="1" as="geometry" />
        </mxCell>
        <mxCell id="rWhO7y_RlSuzqx9vtNS4-93" style="rounded=0;orthogonalLoop=1;jettySize=auto;html=1;entryX=0.443;entryY=0.981;entryDx=0;entryDy=0;entryPerimeter=0;fontSize=12;fontColor=#000000;dashed=1;" parent="1" source="rWhO7y_RlSuzqx9vtNS4-28" target="rWhO7y_RlSuzqx9vtNS4-79" edge="1">
          <mxGeometry relative="1" as="geometry">
            <mxPoint x="-296.02" y="383.506" as="targetPoint" />
          </mxGeometry>
        </mxCell>
        <mxCell id="rWhO7y_RlSuzqx9vtNS4-94" value="all the data changes happen to this store&amp;nbsp;" style="edgeLabel;html=1;align=center;verticalAlign=middle;resizable=0;points=[];fontSize=12;fontColor=#000000;" parent="rWhO7y_RlSuzqx9vtNS4-93" vertex="1" connectable="0">
          <mxGeometry x="0.0006" y="-1" relative="1" as="geometry">
            <mxPoint as="offset" />
          </mxGeometry>
        </mxCell>
        <mxCell id="rWhO7y_RlSuzqx9vtNS4-28" value="execBlockOnProxyApp" style="whiteSpace=wrap;html=1;rounded=0;labelBackgroundColor=none;fillColor=#dae8fc;strokeColor=#6c8ebf;" parent="1" vertex="1">
          <mxGeometry x="-360" y="502.99" width="120" height="60" as="geometry" />
        </mxCell>
        <mxCell id="rWhO7y_RlSuzqx9vtNS4-33" value="" style="rounded=0;orthogonalLoop=1;jettySize=auto;html=1;fontSize=12;fontColor=#000000;exitX=0.5;exitY=0;exitDx=0;exitDy=0;entryX=0;entryY=0.5;entryDx=0;entryDy=0;entryPerimeter=0;" parent="1" source="rWhO7y_RlSuzqx9vtNS4-30" target="rWhO7y_RlSuzqx9vtNS4-32" edge="1">
          <mxGeometry relative="1" as="geometry">
            <mxPoint x="100" y="460.381304347826" as="targetPoint" />
          </mxGeometry>
        </mxCell>
        <mxCell id="rWhO7y_RlSuzqx9vtNS4-35" value="" style="edgeStyle=orthogonalEdgeStyle;rounded=0;orthogonalLoop=1;jettySize=auto;html=1;fontSize=12;fontColor=#000000;" parent="1" source="rWhO7y_RlSuzqx9vtNS4-30" target="rWhO7y_RlSuzqx9vtNS4-34" edge="1">
          <mxGeometry relative="1" as="geometry" />
        </mxCell>
        <mxCell id="rWhO7y_RlSuzqx9vtNS4-30" value="SaveABCIResponses" style="whiteSpace=wrap;html=1;fontColor=#000000;rounded=0;labelBackgroundColor=none;" parent="1" vertex="1">
          <mxGeometry x="-160" y="502.99" width="120" height="60" as="geometry" />
        </mxCell>
        <mxCell id="rWhO7y_RlSuzqx9vtNS4-32" value="state" style="shape=cylinder3;whiteSpace=wrap;html=1;boundedLbl=1;backgroundOutline=1;size=15;labelBackgroundColor=none;fontSize=12;fontColor=#000000;" parent="1" vertex="1">
          <mxGeometry x="130" y="400" width="60" height="80" as="geometry" />
        </mxCell>
        <mxCell id="rWhO7y_RlSuzqx9vtNS4-37" value="" style="edgeStyle=orthogonalEdgeStyle;rounded=0;orthogonalLoop=1;jettySize=auto;html=1;fontSize=12;fontColor=#000000;" parent="1" source="rWhO7y_RlSuzqx9vtNS4-34" target="rWhO7y_RlSuzqx9vtNS4-36" edge="1">
          <mxGeometry relative="1" as="geometry" />
        </mxCell>
        <mxCell id="rWhO7y_RlSuzqx9vtNS4-34" value="update state" style="whiteSpace=wrap;html=1;fontColor=#000000;rounded=0;labelBackgroundColor=none;" parent="1" vertex="1">
          <mxGeometry x="40" y="502.99" width="120" height="60" as="geometry" />
        </mxCell>
        <mxCell id="rWhO7y_RlSuzqx9vtNS4-39" value="" style="edgeStyle=orthogonalEdgeStyle;rounded=0;orthogonalLoop=1;jettySize=auto;html=1;fontSize=12;fontColor=#000000;" parent="1" source="rWhO7y_RlSuzqx9vtNS4-36" target="rWhO7y_RlSuzqx9vtNS4-38" edge="1">
          <mxGeometry relative="1" as="geometry" />
        </mxCell>
        <mxCell id="rWhO7y_RlSuzqx9vtNS4-96" value="" style="edgeStyle=none;rounded=0;orthogonalLoop=1;jettySize=auto;html=1;fontSize=12;fontColor=#000000;" parent="1" source="rWhO7y_RlSuzqx9vtNS4-36" target="rWhO7y_RlSuzqx9vtNS4-95" edge="1">
          <mxGeometry relative="1" as="geometry" />
        </mxCell>
        <mxCell id="rWhO7y_RlSuzqx9vtNS4-36" value="Commit" style="whiteSpace=wrap;html=1;fontColor=#000000;rounded=0;labelBackgroundColor=none;" parent="1" vertex="1">
          <mxGeometry x="240" y="502.99" width="120" height="60" as="geometry" />
        </mxCell>
        <mxCell id="rWhO7y_RlSuzqx9vtNS4-40" style="edgeStyle=none;rounded=0;orthogonalLoop=1;jettySize=auto;html=1;entryX=1;entryY=0.5;entryDx=0;entryDy=0;entryPerimeter=0;fontSize=12;fontColor=#000000;" parent="1" source="rWhO7y_RlSuzqx9vtNS4-38" target="rWhO7y_RlSuzqx9vtNS4-32" edge="1">
          <mxGeometry relative="1" as="geometry">
            <mxPoint x="160" y="466.49" as="targetPoint" />
          </mxGeometry>
        </mxCell>
        <mxCell id="rWhO7y_RlSuzqx9vtNS4-38" value="save state" style="whiteSpace=wrap;html=1;fontColor=#000000;rounded=0;labelBackgroundColor=none;" parent="1" vertex="1">
          <mxGeometry x="440" y="502.99" width="120" height="60" as="geometry" />
        </mxCell>
        <mxCell id="rWhO7y_RlSuzqx9vtNS4-44" value="" style="edgeStyle=orthogonalEdgeStyle;rounded=0;orthogonalLoop=1;jettySize=auto;html=1;fontSize=12;fontColor=#000000;" parent="1" source="rWhO7y_RlSuzqx9vtNS4-41" target="rWhO7y_RlSuzqx9vtNS4-43" edge="1">
          <mxGeometry relative="1" as="geometry" />
        </mxCell>
        <mxCell id="rWhO7y_RlSuzqx9vtNS4-50" value="" style="edgeStyle=orthogonalEdgeStyle;rounded=0;orthogonalLoop=1;jettySize=auto;html=1;fontSize=12;fontColor=#000000;dashed=1;dashPattern=1 1;" parent="1" source="rWhO7y_RlSuzqx9vtNS4-41" target="rWhO7y_RlSuzqx9vtNS4-49" edge="1">
          <mxGeometry relative="1" as="geometry" />
        </mxCell>
        <mxCell id="rWhO7y_RlSuzqx9vtNS4-41" value="Begin Block" style="whiteSpace=wrap;html=1;fontColor=#000000;rounded=0;labelBackgroundColor=none;" parent="1" vertex="1">
          <mxGeometry x="-360" y="642.99" width="120" height="60" as="geometry" />
        </mxCell>
        <mxCell id="rWhO7y_RlSuzqx9vtNS4-46" value="" style="edgeStyle=orthogonalEdgeStyle;rounded=0;orthogonalLoop=1;jettySize=auto;html=1;fontSize=12;fontColor=#000000;" parent="1" source="rWhO7y_RlSuzqx9vtNS4-43" target="rWhO7y_RlSuzqx9vtNS4-45" edge="1">
          <mxGeometry relative="1" as="geometry" />
        </mxCell>
        <mxCell id="rWhO7y_RlSuzqx9vtNS4-43" value="Deliver Tx" style="whiteSpace=wrap;html=1;fontColor=#000000;rounded=0;labelBackgroundColor=none;" parent="1" vertex="1">
          <mxGeometry x="-360" y="782.99" width="120" height="60" as="geometry" />
        </mxCell>
        <mxCell id="rWhO7y_RlSuzqx9vtNS4-45" value="End Block" style="whiteSpace=wrap;html=1;fontColor=#000000;rounded=0;labelBackgroundColor=none;" parent="1" vertex="1">
          <mxGeometry x="-360" y="922.99" width="120" height="60" as="geometry" />
        </mxCell>
        <mxCell id="rWhO7y_RlSuzqx9vtNS4-47" value="application" style="shape=cylinder3;whiteSpace=wrap;html=1;boundedLbl=1;backgroundOutline=1;size=15;labelBackgroundColor=none;fontSize=12;fillColor=#d5e8d4;strokeColor=#82b366;" parent="1" vertex="1">
          <mxGeometry x="670" y="309" width="60" height="80" as="geometry" />
        </mxCell>
        <mxCell id="rWhO7y_RlSuzqx9vtNS4-92" value="" style="edgeStyle=orthogonalEdgeStyle;rounded=0;orthogonalLoop=1;jettySize=auto;html=1;fontSize=12;fontColor=#000000;" parent="1" source="rWhO7y_RlSuzqx9vtNS4-49" target="rWhO7y_RlSuzqx9vtNS4-91" edge="1">
          <mxGeometry relative="1" as="geometry" />
        </mxCell>
        <mxCell id="rWhO7y_RlSuzqx9vtNS4-49" value="set deliver state&lt;br&gt;(copy app.cms to deliverState.ms)" style="whiteSpace=wrap;html=1;fontColor=#000000;rounded=0;labelBackgroundColor=none;" parent="1" vertex="1">
          <mxGeometry x="-160" y="642.99" width="120" height="60" as="geometry" />
        </mxCell>
        <mxCell id="rWhO7y_RlSuzqx9vtNS4-62" value="" style="edgeStyle=orthogonalEdgeStyle;rounded=0;orthogonalLoop=1;jettySize=auto;html=1;fontSize=12;fontColor=#000000;entryX=0.5;entryY=0;entryDx=0;entryDy=0;" parent="1" source="rWhO7y_RlSuzqx9vtNS4-52" target="rWhO7y_RlSuzqx9vtNS4-58" edge="1">
          <mxGeometry relative="1" as="geometry" />
        </mxCell>
        <mxCell id="rWhO7y_RlSuzqx9vtNS4-52" value="app.deliverstate" style="ellipse;whiteSpace=wrap;html=1;aspect=fixed;labelBackgroundColor=none;fontSize=12;fontColor=#000000;" parent="1" vertex="1">
          <mxGeometry x="-330" width="80" height="80" as="geometry" />
        </mxCell>
        <mxCell id="rWhO7y_RlSuzqx9vtNS4-83" style="edgeStyle=orthogonalEdgeStyle;rounded=0;orthogonalLoop=1;jettySize=auto;html=1;exitX=0.5;exitY=1;exitDx=0;exitDy=0;entryX=0.5;entryY=0;entryDx=0;entryDy=0;fontSize=12;fontColor=#000000;" parent="1" source="rWhO7y_RlSuzqx9vtNS4-53" target="rWhO7y_RlSuzqx9vtNS4-64" edge="1">
          <mxGeometry relative="1" as="geometry" />
        </mxCell>
        <mxCell id="rWhO7y_RlSuzqx9vtNS4-53" value="«interface»&lt;br&gt;&lt;b&gt;CacheMultiStore&lt;/b&gt;" style="html=1;labelBackgroundColor=none;fontSize=12;fontColor=#000000;" parent="1" vertex="1">
          <mxGeometry x="-530" y="149" width="110" height="50" as="geometry" />
        </mxCell>
        <mxCell id="rWhO7y_RlSuzqx9vtNS4-58" value="state" style="swimlane;fontStyle=0;childLayout=stackLayout;horizontal=1;startSize=26;fillColor=none;horizontalStack=0;resizeParent=1;resizeParentMax=0;resizeLast=0;collapsible=1;marginBottom=0;labelBackgroundColor=none;fontSize=12;fontColor=#000000;" parent="1" vertex="1">
          <mxGeometry x="-360" y="135" width="140" height="78" as="geometry" />
        </mxCell>
        <mxCell id="rWhO7y_RlSuzqx9vtNS4-59" value="+ ms: CacheMultiStore" style="text;strokeColor=none;fillColor=none;align=left;verticalAlign=top;spacingLeft=4;spacingRight=4;overflow=hidden;rotatable=0;points=[[0,0.5],[1,0.5]];portConstraint=eastwest;labelBackgroundColor=none;fontSize=12;fontColor=#000000;" parent="rWhO7y_RlSuzqx9vtNS4-58" vertex="1">
          <mxGeometry y="26" width="140" height="26" as="geometry" />
        </mxCell>
        <mxCell id="rWhO7y_RlSuzqx9vtNS4-60" value="+ ctx: Context" style="text;strokeColor=none;fillColor=none;align=left;verticalAlign=top;spacingLeft=4;spacingRight=4;overflow=hidden;rotatable=0;points=[[0,0.5],[1,0.5]];portConstraint=eastwest;labelBackgroundColor=none;fontSize=12;fontColor=#000000;" parent="rWhO7y_RlSuzqx9vtNS4-58" vertex="1">
          <mxGeometry y="52" width="140" height="26" as="geometry" />
        </mxCell>
        <mxCell id="rWhO7y_RlSuzqx9vtNS4-63" style="edgeStyle=orthogonalEdgeStyle;rounded=0;orthogonalLoop=1;jettySize=auto;html=1;exitX=0;exitY=0.5;exitDx=0;exitDy=0;entryX=1;entryY=0.5;entryDx=0;entryDy=0;fontSize=12;fontColor=#000000;" parent="1" source="rWhO7y_RlSuzqx9vtNS4-59" target="rWhO7y_RlSuzqx9vtNS4-53" edge="1">
          <mxGeometry relative="1" as="geometry" />
        </mxCell>
        <mxCell id="rWhO7y_RlSuzqx9vtNS4-64" value="cacheMulti.Store" style="swimlane;fontStyle=0;childLayout=stackLayout;horizontal=1;startSize=26;fillColor=none;horizontalStack=0;resizeParent=1;resizeParentMax=0;resizeLast=0;collapsible=1;marginBottom=0;labelBackgroundColor=none;fontSize=12;fontColor=#000000;" parent="1" vertex="1">
          <mxGeometry x="-545" y="230" width="140" height="78" as="geometry" />
        </mxCell>
        <mxCell id="rWhO7y_RlSuzqx9vtNS4-65" value="+ db: CacheKVStore" style="text;strokeColor=none;fillColor=none;align=left;verticalAlign=top;spacingLeft=4;spacingRight=4;overflow=hidden;rotatable=0;points=[[0,0.5],[1,0.5]];portConstraint=eastwest;labelBackgroundColor=none;fontSize=12;fontColor=#000000;" parent="rWhO7y_RlSuzqx9vtNS4-64" vertex="1">
          <mxGeometry y="26" width="140" height="26" as="geometry" />
        </mxCell>
        <mxCell id="rWhO7y_RlSuzqx9vtNS4-66" value="+ stores: CacheWrap" style="text;strokeColor=none;fillColor=none;align=left;verticalAlign=top;spacingLeft=4;spacingRight=4;overflow=hidden;rotatable=0;points=[[0,0.5],[1,0.5]];portConstraint=eastwest;labelBackgroundColor=none;fontSize=12;fontColor=#000000;" parent="rWhO7y_RlSuzqx9vtNS4-64" vertex="1">
          <mxGeometry y="52" width="140" height="26" as="geometry" />
        </mxCell>
        <mxCell id="rWhO7y_RlSuzqx9vtNS4-72" value="cachekv.Store" style="swimlane;fontStyle=0;childLayout=stackLayout;horizontal=1;startSize=26;fillColor=none;horizontalStack=0;resizeParent=1;resizeParentMax=0;resizeLast=0;collapsible=1;marginBottom=0;labelBackgroundColor=none;fontSize=12;fontColor=#000000;" parent="1" vertex="1">
          <mxGeometry x="-730" y="256" width="140" height="104" as="geometry" />
        </mxCell>
        <mxCell id="rWhO7y_RlSuzqx9vtNS4-73" value="+ cache: map" style="text;strokeColor=none;fillColor=none;align=left;verticalAlign=top;spacingLeft=4;spacingRight=4;overflow=hidden;rotatable=0;points=[[0,0.5],[1,0.5]];portConstraint=eastwest;labelBackgroundColor=none;fontSize=12;fontColor=#000000;" parent="rWhO7y_RlSuzqx9vtNS4-72" vertex="1">
          <mxGeometry y="26" width="140" height="26" as="geometry" />
        </mxCell>
        <mxCell id="rWhO7y_RlSuzqx9vtNS4-74" value="+ parent: KVStore" style="text;strokeColor=none;fillColor=none;align=left;verticalAlign=top;spacingLeft=4;spacingRight=4;overflow=hidden;rotatable=0;points=[[0,0.5],[1,0.5]];portConstraint=eastwest;labelBackgroundColor=none;fontSize=12;fontColor=#000000;" parent="rWhO7y_RlSuzqx9vtNS4-72" vertex="1">
          <mxGeometry y="52" width="140" height="26" as="geometry" />
        </mxCell>
        <mxCell id="rWhO7y_RlSuzqx9vtNS4-75" value="+ ......" style="text;strokeColor=none;fillColor=none;align=left;verticalAlign=top;spacingLeft=4;spacingRight=4;overflow=hidden;rotatable=0;points=[[0,0.5],[1,0.5]];portConstraint=eastwest;labelBackgroundColor=none;fontSize=12;fontColor=#000000;" parent="rWhO7y_RlSuzqx9vtNS4-72" vertex="1">
          <mxGeometry y="78" width="140" height="26" as="geometry" />
        </mxCell>
        <mxCell id="rWhO7y_RlSuzqx9vtNS4-76" style="edgeStyle=orthogonalEdgeStyle;rounded=0;orthogonalLoop=1;jettySize=auto;html=1;entryX=1;entryY=0.13;entryDx=0;entryDy=0;entryPerimeter=0;fontSize=12;fontColor=#000000;exitX=0;exitY=0.5;exitDx=0;exitDy=0;" parent="1" source="rWhO7y_RlSuzqx9vtNS4-65" target="rWhO7y_RlSuzqx9vtNS4-72" edge="1">
          <mxGeometry relative="1" as="geometry">
            <mxPoint x="-550" y="264" as="sourcePoint" />
          </mxGeometry>
        </mxCell>
        <mxCell id="rWhO7y_RlSuzqx9vtNS4-77" value="cachekv.Store" style="swimlane;fontStyle=0;childLayout=stackLayout;horizontal=1;startSize=26;fillColor=#dae8fc;horizontalStack=0;resizeParent=1;resizeParentMax=0;resizeLast=0;collapsible=1;marginBottom=0;labelBackgroundColor=none;fontSize=12;strokeColor=#6c8ebf;" parent="1" vertex="1">
          <mxGeometry x="-360" y="282" width="140" height="78" as="geometry" />
        </mxCell>
        <mxCell id="rWhO7y_RlSuzqx9vtNS4-78" value="+ cache: map" style="text;strokeColor=none;fillColor=none;align=left;verticalAlign=top;spacingLeft=4;spacingRight=4;overflow=hidden;rotatable=0;points=[[0,0.5],[1,0.5]];portConstraint=eastwest;labelBackgroundColor=none;fontSize=12;fontColor=#000000;" parent="rWhO7y_RlSuzqx9vtNS4-77" vertex="1">
          <mxGeometry y="26" width="140" height="26" as="geometry" />
        </mxCell>
        <mxCell id="rWhO7y_RlSuzqx9vtNS4-79" value="+ parent: KVStore" style="text;strokeColor=none;fillColor=none;align=left;verticalAlign=top;spacingLeft=4;spacingRight=4;overflow=hidden;rotatable=0;points=[[0,0.5],[1,0.5]];portConstraint=eastwest;labelBackgroundColor=none;fontSize=12;fontColor=#000000;" parent="rWhO7y_RlSuzqx9vtNS4-77" vertex="1">
          <mxGeometry y="52" width="140" height="26" as="geometry" />
        </mxCell>
        <mxCell id="rWhO7y_RlSuzqx9vtNS4-81" style="edgeStyle=orthogonalEdgeStyle;rounded=0;orthogonalLoop=1;jettySize=auto;html=1;entryX=0;entryY=0.16;entryDx=0;entryDy=0;entryPerimeter=0;fontSize=12;fontColor=#000000;" parent="1" source="rWhO7y_RlSuzqx9vtNS4-66" target="rWhO7y_RlSuzqx9vtNS4-77" edge="1">
          <mxGeometry relative="1" as="geometry" />
        </mxCell>
        <mxCell id="rWhO7y_RlSuzqx9vtNS4-82" style="edgeStyle=orthogonalEdgeStyle;rounded=0;orthogonalLoop=1;jettySize=auto;html=1;fontSize=12;fontColor=#000000;" parent="1" source="rWhO7y_RlSuzqx9vtNS4-79" edge="1">
          <mxGeometry relative="1" as="geometry">
            <mxPoint x="20" y="347" as="targetPoint" />
          </mxGeometry>
        </mxCell>
        <mxCell id="rWhO7y_RlSuzqx9vtNS4-86" value="dbadapter.Store" style="swimlane;fontStyle=0;childLayout=stackLayout;horizontal=1;startSize=26;fillColor=none;horizontalStack=0;resizeParent=1;resizeParentMax=0;resizeLast=0;collapsible=1;marginBottom=0;labelBackgroundColor=none;fontSize=12;fontColor=#000000;" parent="1" vertex="1">
          <mxGeometry x="-820" y="440" width="140" height="52" as="geometry" />
        </mxCell>
        <mxCell id="rWhO7y_RlSuzqx9vtNS4-87" value="+ db" style="text;strokeColor=none;fillColor=none;align=left;verticalAlign=top;spacingLeft=4;spacingRight=4;overflow=hidden;rotatable=0;points=[[0,0.5],[1,0.5]];portConstraint=eastwest;labelBackgroundColor=none;fontSize=12;fontColor=#000000;" parent="rWhO7y_RlSuzqx9vtNS4-86" vertex="1">
          <mxGeometry y="26" width="140" height="26" as="geometry" />
        </mxCell>
        <mxCell id="rWhO7y_RlSuzqx9vtNS4-90" style="edgeStyle=orthogonalEdgeStyle;rounded=0;orthogonalLoop=1;jettySize=auto;html=1;entryX=0.5;entryY=0;entryDx=0;entryDy=0;fontSize=12;fontColor=#000000;" parent="1" source="rWhO7y_RlSuzqx9vtNS4-73" target="rWhO7y_RlSuzqx9vtNS4-86" edge="1">
          <mxGeometry relative="1" as="geometry" />
        </mxCell>
        <mxCell id="rWhO7y_RlSuzqx9vtNS4-91" value="app.beginBlocker" style="whiteSpace=wrap;html=1;fontColor=#000000;rounded=0;labelBackgroundColor=none;" parent="1" vertex="1">
          <mxGeometry x="40" y="642.99" width="120" height="60" as="geometry" />
        </mxCell>
        <mxCell id="rWhO7y_RlSuzqx9vtNS4-98" value="" style="edgeStyle=none;rounded=0;orthogonalLoop=1;jettySize=auto;html=1;fontSize=12;fontColor=#000000;dashed=1;dashPattern=1 1;" parent="1" source="rWhO7y_RlSuzqx9vtNS4-95" target="rWhO7y_RlSuzqx9vtNS4-97" edge="1">
          <mxGeometry relative="1" as="geometry" />
        </mxCell>
        <mxCell id="rWhO7y_RlSuzqx9vtNS4-102" value="" style="edgeStyle=none;rounded=0;orthogonalLoop=1;jettySize=auto;html=1;fontSize=12;fontColor=#000000;" parent="1" source="rWhO7y_RlSuzqx9vtNS4-95" target="rWhO7y_RlSuzqx9vtNS4-101" edge="1">
          <mxGeometry relative="1" as="geometry" />
        </mxCell>
        <mxCell id="rWhO7y_RlSuzqx9vtNS4-95" value="dliverState.ms write()" style="whiteSpace=wrap;html=1;rounded=0;labelBackgroundColor=none;fillColor=#e1d5e7;strokeColor=#9673a6;" parent="1" vertex="1">
          <mxGeometry x="240" y="642.99" width="120" height="60" as="geometry" />
        </mxCell>
        <mxCell id="rWhO7y_RlSuzqx9vtNS4-100" value="" style="edgeStyle=none;rounded=0;orthogonalLoop=1;jettySize=auto;html=1;fontSize=12;fontColor=#000000;" parent="1" source="rWhO7y_RlSuzqx9vtNS4-97" target="rWhO7y_RlSuzqx9vtNS4-99" edge="1">
          <mxGeometry relative="1" as="geometry" />
        </mxCell>
        <mxCell id="rWhO7y_RlSuzqx9vtNS4-97" value="write from cacheKV to CommitKVStoreCache" style="whiteSpace=wrap;html=1;rounded=0;labelBackgroundColor=none;" parent="1" vertex="1">
          <mxGeometry x="440" y="642.99" width="120" height="60" as="geometry" />
        </mxCell>
        <mxCell id="rWhO7y_RlSuzqx9vtNS4-99" value="make changes to LRU,&lt;br&gt;make changes to iavl tree" style="whiteSpace=wrap;html=1;rounded=0;labelBackgroundColor=none;" parent="1" vertex="1">
          <mxGeometry x="640" y="642.99" width="120" height="60" as="geometry" />
        </mxCell>
        <mxCell id="rWhO7y_RlSuzqx9vtNS4-104" value="" style="edgeStyle=none;rounded=0;orthogonalLoop=1;jettySize=auto;html=1;fontSize=12;fontColor=#000000;dashed=1;dashPattern=1 1;" parent="1" source="rWhO7y_RlSuzqx9vtNS4-101" target="rWhO7y_RlSuzqx9vtNS4-103" edge="1">
          <mxGeometry relative="1" as="geometry" />
        </mxCell>
        <mxCell id="rWhO7y_RlSuzqx9vtNS4-108" value="" style="edgeStyle=none;rounded=0;orthogonalLoop=1;jettySize=auto;html=1;fontSize=12;fontColor=#000000;" parent="1" source="rWhO7y_RlSuzqx9vtNS4-101" target="rWhO7y_RlSuzqx9vtNS4-107" edge="1">
          <mxGeometry relative="1" as="geometry" />
        </mxCell>
        <mxCell id="rWhO7y_RlSuzqx9vtNS4-101" value="app.cms commit" style="whiteSpace=wrap;html=1;rounded=0;labelBackgroundColor=none;fillColor=#d5e8d4;strokeColor=#82b366;" parent="1" vertex="1">
          <mxGeometry x="240" y="762.99" width="120" height="60" as="geometry" />
        </mxCell>
        <mxCell id="rWhO7y_RlSuzqx9vtNS4-106" value="" style="edgeStyle=none;rounded=0;orthogonalLoop=1;jettySize=auto;html=1;fontSize=12;fontColor=#000000;" parent="1" source="rWhO7y_RlSuzqx9vtNS4-103" target="rWhO7y_RlSuzqx9vtNS4-105" edge="1">
          <mxGeometry relative="1" as="geometry" />
        </mxCell>
        <mxCell id="rWhO7y_RlSuzqx9vtNS4-103" value="commit stores&lt;br&gt;(iavl tree to DB)" style="whiteSpace=wrap;html=1;fontColor=#000000;rounded=0;labelBackgroundColor=none;" parent="1" vertex="1">
          <mxGeometry x="440" y="762.99" width="120" height="60" as="geometry" />
        </mxCell>
        <mxCell id="rWhO7y_RlSuzqx9vtNS4-105" value="prune stores" style="whiteSpace=wrap;html=1;fontColor=#000000;rounded=0;labelBackgroundColor=none;" parent="1" vertex="1">
          <mxGeometry x="640" y="762.99" width="120" height="60" as="geometry" />
        </mxCell>
        <mxCell id="rWhO7y_RlSuzqx9vtNS4-110" value="" style="edgeStyle=none;rounded=0;orthogonalLoop=1;jettySize=auto;html=1;fontSize=12;fontColor=#000000;dashed=1;dashPattern=1 1;" parent="1" source="rWhO7y_RlSuzqx9vtNS4-107" target="rWhO7y_RlSuzqx9vtNS4-109" edge="1">
          <mxGeometry relative="1" as="geometry" />
        </mxCell>
        <mxCell id="rWhO7y_RlSuzqx9vtNS4-112" value="" style="edgeStyle=none;rounded=0;orthogonalLoop=1;jettySize=auto;html=1;fontSize=12;fontColor=#000000;" parent="1" source="rWhO7y_RlSuzqx9vtNS4-107" target="rWhO7y_RlSuzqx9vtNS4-111" edge="1">
          <mxGeometry relative="1" as="geometry" />
        </mxCell>
        <mxCell id="rWhO7y_RlSuzqx9vtNS4-107" value="set check state&lt;br&gt;(copy app.cms to checkState.ms)" style="whiteSpace=wrap;html=1;rounded=0;labelBackgroundColor=none;" parent="1" vertex="1">
          <mxGeometry x="240" y="882.99" width="120" height="60" as="geometry" />
        </mxCell>
        <mxCell id="rWhO7y_RlSuzqx9vtNS4-109" value="build a new cachekv.store&amp;nbsp;" style="whiteSpace=wrap;html=1;rounded=0;labelBackgroundColor=none;" parent="1" vertex="1">
          <mxGeometry x="440" y="882.99" width="120" height="60" as="geometry" />
        </mxCell>
        <mxCell id="rWhO7y_RlSuzqx9vtNS4-114" value="" style="edgeStyle=none;rounded=0;orthogonalLoop=1;jettySize=auto;html=1;fontSize=12;fontColor=#000000;" parent="1" source="rWhO7y_RlSuzqx9vtNS4-111" target="rWhO7y_RlSuzqx9vtNS4-113" edge="1">
          <mxGeometry relative="1" as="geometry" />
        </mxCell>
        <mxCell id="rWhO7y_RlSuzqx9vtNS4-111" value="set deliverState to nil" style="whiteSpace=wrap;html=1;rounded=0;labelBackgroundColor=none;" parent="1" vertex="1">
          <mxGeometry x="240" y="992.99" width="120" height="60" as="geometry" />
        </mxCell>
        <mxCell id="rWhO7y_RlSuzqx9vtNS4-113" value="go snapshot" style="whiteSpace=wrap;html=1;rounded=0;labelBackgroundColor=none;" parent="1" vertex="1">
          <mxGeometry x="240" y="1092.99" width="120" height="60" as="geometry" />
        </mxCell>
      </root>
    </mxGraphModel>
  </diagram>
  <diagram id="IGEkmEpxAbaIuEdjbxB8" name="Page-2">
    <mxGraphModel dx="2013" dy="614" grid="1" gridSize="10" guides="1" tooltips="1" connect="1" arrows="1" fold="1" page="1" pageScale="1" pageWidth="827" pageHeight="1169" math="0" shadow="0">
      <root>
        <mxCell id="0" />
        <mxCell id="1" parent="0" />
        <mxCell id="GKaw1PrU03otzUXpgLPP-38" value="" style="edgeStyle=none;rounded=0;orthogonalLoop=1;jettySize=auto;html=1;fontSize=12;fontColor=#000000;fillColor=#ffe6cc;strokeColor=#d79b00;" parent="1" source="GKaw1PrU03otzUXpgLPP-1" target="GKaw1PrU03otzUXpgLPP-37" edge="1">
          <mxGeometry relative="1" as="geometry" />
        </mxCell>
        <mxCell id="GKaw1PrU03otzUXpgLPP-41" value="write" style="edgeLabel;html=1;align=center;verticalAlign=middle;resizable=0;points=[];fontSize=12;fontColor=#000000;" parent="GKaw1PrU03otzUXpgLPP-38" vertex="1" connectable="0">
          <mxGeometry x="-0.25" relative="1" as="geometry">
            <mxPoint as="offset" />
          </mxGeometry>
        </mxCell>
        <mxCell id="jbOc_-qAm_204UrLxR5Y-1" style="edgeStyle=none;rounded=0;orthogonalLoop=1;jettySize=auto;html=1;entryX=0;entryY=0.5;entryDx=0;entryDy=0;fontSize=12;fontColor=#000000;exitX=1;exitY=0.5;exitDx=0;exitDy=0;dashed=1;dashPattern=1 1;" parent="1" source="GKaw1PrU03otzUXpgLPP-1" target="GKaw1PrU03otzUXpgLPP-4" edge="1">
          <mxGeometry relative="1" as="geometry" />
        </mxCell>
        <mxCell id="jbOc_-qAm_204UrLxR5Y-2" value="re-refer after commit" style="edgeLabel;html=1;align=center;verticalAlign=middle;resizable=0;points=[];fontSize=12;fontColor=#000000;" parent="jbOc_-qAm_204UrLxR5Y-1" vertex="1" connectable="0">
          <mxGeometry x="-0.0361" y="3" relative="1" as="geometry">
            <mxPoint as="offset" />
          </mxGeometry>
        </mxCell>
        <mxCell id="GKaw1PrU03otzUXpgLPP-1" value="CommitKVStoreCache" style="rounded=0;whiteSpace=wrap;html=1;labelBackgroundColor=none;fontSize=12;fontColor=#000000;" parent="1" vertex="1">
          <mxGeometry x="-790" y="335" width="120" height="55" as="geometry" />
        </mxCell>
        <mxCell id="GKaw1PrU03otzUXpgLPP-4" value="cachekv store" style="rounded=0;whiteSpace=wrap;html=1;labelBackgroundColor=none;fontSize=12;fontColor=#000000;" parent="1" vertex="1">
          <mxGeometry x="-550" y="200" width="120" height="60" as="geometry" />
        </mxCell>
        <mxCell id="GKaw1PrU03otzUXpgLPP-5" value="check state" style="text;html=1;strokeColor=none;fillColor=none;align=center;verticalAlign=middle;whiteSpace=wrap;rounded=0;labelBackgroundColor=none;fontSize=12;fontColor=#000000;" parent="1" vertex="1">
          <mxGeometry x="-530" y="170" width="80" height="30" as="geometry" />
        </mxCell>
        <mxCell id="GKaw1PrU03otzUXpgLPP-6" value="parent&lt;br&gt;(write back)" style="edgeStyle=none;rounded=0;orthogonalLoop=1;jettySize=auto;html=1;entryX=1;entryY=0.5;entryDx=0;entryDy=0;fontSize=12;fontColor=#000000;exitX=0;exitY=0.5;exitDx=0;exitDy=0;fillColor=#ffe6cc;strokeColor=#d79b00;" parent="1" source="GKaw1PrU03otzUXpgLPP-7" target="GKaw1PrU03otzUXpgLPP-1" edge="1">
          <mxGeometry relative="1" as="geometry" />
        </mxCell>
        <mxCell id="GKaw1PrU03otzUXpgLPP-7" value="cachekv store" style="rounded=0;whiteSpace=wrap;html=1;labelBackgroundColor=none;fontSize=12;fontColor=#000000;" parent="1" vertex="1">
          <mxGeometry x="-550" y="440" width="120" height="60" as="geometry" />
        </mxCell>
        <mxCell id="GKaw1PrU03otzUXpgLPP-8" value="deliver state" style="text;html=1;strokeColor=none;fillColor=none;align=center;verticalAlign=middle;whiteSpace=wrap;rounded=0;labelBackgroundColor=none;fontSize=12;fontColor=#000000;" parent="1" vertex="1">
          <mxGeometry x="-530" y="410" width="80" height="30" as="geometry" />
        </mxCell>
        <mxCell id="GKaw1PrU03otzUXpgLPP-9" style="edgeStyle=none;rounded=0;orthogonalLoop=1;jettySize=auto;html=1;exitX=0;exitY=0.5;exitDx=0;exitDy=0;entryX=1;entryY=0.5;entryDx=0;entryDy=0;fontSize=12;fontColor=#000000;" parent="1" source="GKaw1PrU03otzUXpgLPP-11" target="GKaw1PrU03otzUXpgLPP-4" edge="1">
          <mxGeometry relative="1" as="geometry" />
        </mxCell>
        <mxCell id="GKaw1PrU03otzUXpgLPP-10" value="parent&lt;br&gt;(write back)" style="edgeLabel;html=1;align=center;verticalAlign=middle;resizable=0;points=[];fontSize=12;fontColor=#000000;" parent="GKaw1PrU03otzUXpgLPP-9" vertex="1" connectable="0">
          <mxGeometry x="-0.088" y="1" relative="1" as="geometry">
            <mxPoint as="offset" />
          </mxGeometry>
        </mxCell>
        <mxCell id="GKaw1PrU03otzUXpgLPP-11" value="cachekv store&lt;br&gt;for anteHandler" style="rounded=0;whiteSpace=wrap;html=1;labelBackgroundColor=none;fontSize=12;fontColor=#333333;fillColor=#f5f5f5;strokeColor=#666666;" parent="1" vertex="1">
          <mxGeometry x="-350" y="140" width="120" height="60" as="geometry" />
        </mxCell>
        <mxCell id="GKaw1PrU03otzUXpgLPP-12" style="edgeStyle=none;rounded=0;orthogonalLoop=1;jettySize=auto;html=1;entryX=1;entryY=0.5;entryDx=0;entryDy=0;fontSize=12;fontColor=#000000;exitX=0;exitY=0.5;exitDx=0;exitDy=0;" parent="1" source="GKaw1PrU03otzUXpgLPP-14" target="GKaw1PrU03otzUXpgLPP-4" edge="1">
          <mxGeometry relative="1" as="geometry" />
        </mxCell>
        <mxCell id="GKaw1PrU03otzUXpgLPP-13" value="parent&lt;br&gt;(X)" style="edgeLabel;html=1;align=center;verticalAlign=middle;resizable=0;points=[];fontSize=12;fontColor=#000000;" parent="GKaw1PrU03otzUXpgLPP-12" vertex="1" connectable="0">
          <mxGeometry x="0.17" relative="1" as="geometry">
            <mxPoint x="7" y="3" as="offset" />
          </mxGeometry>
        </mxCell>
        <mxCell id="GKaw1PrU03otzUXpgLPP-14" value="&lt;span&gt;cachekv store&lt;br&gt;&lt;/span&gt;" style="rounded=0;whiteSpace=wrap;html=1;labelBackgroundColor=none;fontSize=12;fillColor=#dae8fc;strokeColor=#6c8ebf;" parent="1" vertex="1">
          <mxGeometry x="-350" y="250" width="120" height="60" as="geometry" />
        </mxCell>
        <mxCell id="GKaw1PrU03otzUXpgLPP-15" value="TxCheckMode" style="text;html=1;strokeColor=none;fillColor=none;align=center;verticalAlign=middle;whiteSpace=wrap;rounded=0;labelBackgroundColor=none;fontSize=12;fontColor=#000000;" parent="1" vertex="1">
          <mxGeometry x="-320" y="110" width="60" height="30" as="geometry" />
        </mxCell>
        <mxCell id="GKaw1PrU03otzUXpgLPP-16" value="TxSimulateMode" style="text;html=1;strokeColor=none;fillColor=none;align=center;verticalAlign=middle;whiteSpace=wrap;rounded=0;labelBackgroundColor=none;fontSize=12;fontColor=#000000;" parent="1" vertex="1">
          <mxGeometry x="-320" y="220" width="60" height="30" as="geometry" />
        </mxCell>
        <mxCell id="GKaw1PrU03otzUXpgLPP-17" value="parent&lt;br&gt;(write back)" style="edgeStyle=none;rounded=0;orthogonalLoop=1;jettySize=auto;html=1;entryX=1;entryY=0.5;entryDx=0;entryDy=0;fontSize=12;fontColor=#000000;" parent="1" source="GKaw1PrU03otzUXpgLPP-18" target="GKaw1PrU03otzUXpgLPP-14" edge="1">
          <mxGeometry relative="1" as="geometry" />
        </mxCell>
        <mxCell id="GKaw1PrU03otzUXpgLPP-18" value="&lt;span&gt;cachekv store&lt;br&gt;for anteHandler&lt;br&gt;&lt;/span&gt;" style="rounded=0;whiteSpace=wrap;html=1;labelBackgroundColor=none;fontSize=12;fontColor=#333333;fillColor=#f5f5f5;strokeColor=#666666;" parent="1" vertex="1">
          <mxGeometry x="-130" y="170" width="120" height="60" as="geometry" />
        </mxCell>
        <mxCell id="GKaw1PrU03otzUXpgLPP-19" style="edgeStyle=none;rounded=0;orthogonalLoop=1;jettySize=auto;html=1;entryX=1;entryY=0.5;entryDx=0;entryDy=0;fontSize=12;fontColor=#000000;fillColor=#a20025;strokeColor=#6F0000;" parent="1" source="GKaw1PrU03otzUXpgLPP-21" target="GKaw1PrU03otzUXpgLPP-14" edge="1">
          <mxGeometry relative="1" as="geometry" />
        </mxCell>
        <mxCell id="GKaw1PrU03otzUXpgLPP-20" value="parent&lt;br&gt;(X)" style="edgeLabel;html=1;align=center;verticalAlign=middle;resizable=0;points=[];fontSize=12;fontColor=#000000;" parent="GKaw1PrU03otzUXpgLPP-19" vertex="1" connectable="0">
          <mxGeometry x="0.0918" y="2" relative="1" as="geometry">
            <mxPoint as="offset" />
          </mxGeometry>
        </mxCell>
        <mxCell id="GKaw1PrU03otzUXpgLPP-21" value="&lt;span&gt;cachekv store&lt;br&gt;for runMsgs&lt;br&gt;&lt;/span&gt;" style="rounded=0;whiteSpace=wrap;html=1;labelBackgroundColor=none;fontSize=12;fillColor=#d5e8d4;strokeColor=#82b366;" parent="1" vertex="1">
          <mxGeometry x="-130" y="290" width="120" height="60" as="geometry" />
        </mxCell>
        <mxCell id="GKaw1PrU03otzUXpgLPP-22" style="edgeStyle=none;rounded=0;orthogonalLoop=1;jettySize=auto;html=1;entryX=1;entryY=0.5;entryDx=0;entryDy=0;fontSize=12;fontColor=#000000;exitX=0;exitY=0.5;exitDx=0;exitDy=0;" parent="1" source="GKaw1PrU03otzUXpgLPP-24" target="GKaw1PrU03otzUXpgLPP-7" edge="1">
          <mxGeometry relative="1" as="geometry" />
        </mxCell>
        <mxCell id="GKaw1PrU03otzUXpgLPP-23" value="parent&lt;br&gt;(write back)" style="edgeLabel;html=1;align=center;verticalAlign=middle;resizable=0;points=[];fontSize=12;fontColor=#000000;" parent="GKaw1PrU03otzUXpgLPP-22" vertex="1" connectable="0">
          <mxGeometry x="0.06" y="-1" relative="1" as="geometry">
            <mxPoint x="-1" as="offset" />
          </mxGeometry>
        </mxCell>
        <mxCell id="GKaw1PrU03otzUXpgLPP-24" value="cachekv store&lt;br&gt;for anteHandler" style="rounded=0;whiteSpace=wrap;html=1;labelBackgroundColor=none;fontSize=12;fontColor=#333333;fillColor=#f5f5f5;strokeColor=#666666;" parent="1" vertex="1">
          <mxGeometry x="-350" y="380" width="120" height="60" as="geometry" />
        </mxCell>
        <mxCell id="GKaw1PrU03otzUXpgLPP-25" value="TxDeliverMode" style="text;html=1;strokeColor=none;fillColor=none;align=center;verticalAlign=middle;whiteSpace=wrap;rounded=0;labelBackgroundColor=none;fontSize=12;fontColor=#000000;" parent="1" vertex="1">
          <mxGeometry x="-320" y="350" width="60" height="30" as="geometry" />
        </mxCell>
        <mxCell id="GKaw1PrU03otzUXpgLPP-26" style="edgeStyle=none;rounded=0;orthogonalLoop=1;jettySize=auto;html=1;entryX=1;entryY=0.5;entryDx=0;entryDy=0;fontSize=12;fontColor=#000000;exitX=0;exitY=0.5;exitDx=0;exitDy=0;fillColor=#ffe6cc;strokeColor=#d79b00;" parent="1" source="GKaw1PrU03otzUXpgLPP-28" target="GKaw1PrU03otzUXpgLPP-7" edge="1">
          <mxGeometry relative="1" as="geometry" />
        </mxCell>
        <mxCell id="GKaw1PrU03otzUXpgLPP-27" value="parent&lt;br&gt;(write back)" style="edgeLabel;html=1;align=center;verticalAlign=middle;resizable=0;points=[];fontSize=12;fontColor=#000000;" parent="GKaw1PrU03otzUXpgLPP-26" vertex="1" connectable="0">
          <mxGeometry x="0.1437" y="2" relative="1" as="geometry">
            <mxPoint as="offset" />
          </mxGeometry>
        </mxCell>
        <mxCell id="GKaw1PrU03otzUXpgLPP-28" value="&lt;span&gt;cachekv store&lt;br&gt;for runMsgs&lt;br&gt;&lt;/span&gt;" style="rounded=0;whiteSpace=wrap;html=1;labelBackgroundColor=none;fontSize=12;fillColor=#d5e8d4;strokeColor=#82b366;" parent="1" vertex="1">
          <mxGeometry x="-350" y="500" width="120" height="60" as="geometry" />
        </mxCell>
        <mxCell id="GKaw1PrU03otzUXpgLPP-34" value="" style="group" parent="1" vertex="1" connectable="0">
          <mxGeometry x="-785" y="130" width="130" height="130" as="geometry" />
        </mxCell>
        <mxCell id="GKaw1PrU03otzUXpgLPP-30" value="" style="whiteSpace=wrap;html=1;aspect=fixed;labelBackgroundColor=none;fontSize=12;fontColor=#000000;" parent="GKaw1PrU03otzUXpgLPP-34" vertex="1">
          <mxGeometry width="130" height="130" as="geometry" />
        </mxCell>
        <mxCell id="GKaw1PrU03otzUXpgLPP-29" value="stores" style="rounded=0;whiteSpace=wrap;html=1;labelBackgroundColor=none;fontSize=12;fontColor=#000000;" parent="GKaw1PrU03otzUXpgLPP-34" vertex="1">
          <mxGeometry x="10" y="45" width="90" height="45" as="geometry" />
        </mxCell>
        <mxCell id="GKaw1PrU03otzUXpgLPP-31" value="stores" style="rounded=0;whiteSpace=wrap;html=1;labelBackgroundColor=none;fontSize=12;fontColor=#000000;" parent="GKaw1PrU03otzUXpgLPP-34" vertex="1">
          <mxGeometry x="20" y="55" width="90" height="45" as="geometry" />
        </mxCell>
        <mxCell id="GKaw1PrU03otzUXpgLPP-32" value="stores" style="rounded=0;whiteSpace=wrap;html=1;labelBackgroundColor=none;fontSize=12;fontColor=#000000;" parent="GKaw1PrU03otzUXpgLPP-34" vertex="1">
          <mxGeometry x="30" y="65" width="90" height="45" as="geometry" />
        </mxCell>
        <mxCell id="GKaw1PrU03otzUXpgLPP-33" value="app.cms" style="text;html=1;strokeColor=none;fillColor=none;align=center;verticalAlign=middle;whiteSpace=wrap;rounded=0;labelBackgroundColor=none;fontSize=12;fontColor=#000000;" parent="GKaw1PrU03otzUXpgLPP-34" vertex="1">
          <mxGeometry width="60" height="30" as="geometry" />
        </mxCell>
        <mxCell id="GKaw1PrU03otzUXpgLPP-35" style="edgeStyle=none;rounded=0;orthogonalLoop=1;jettySize=auto;html=1;fontSize=12;fontColor=#000000;entryX=0.75;entryY=0;entryDx=0;entryDy=0;" parent="1" source="GKaw1PrU03otzUXpgLPP-1" target="GKaw1PrU03otzUXpgLPP-1" edge="1">
          <mxGeometry relative="1" as="geometry" />
        </mxCell>
        <mxCell id="GKaw1PrU03otzUXpgLPP-36" style="edgeStyle=none;rounded=0;orthogonalLoop=1;jettySize=auto;html=1;fontSize=12;fontColor=#000000;dashed=1;" parent="1" target="GKaw1PrU03otzUXpgLPP-1" edge="1">
          <mxGeometry relative="1" as="geometry">
            <mxPoint x="-730" y="240" as="sourcePoint" />
          </mxGeometry>
        </mxCell>
        <mxCell id="GKaw1PrU03otzUXpgLPP-40" value="" style="edgeStyle=none;rounded=0;orthogonalLoop=1;jettySize=auto;html=1;fontSize=12;fontColor=#000000;fillColor=#ffe6cc;strokeColor=#d79b00;" parent="1" source="GKaw1PrU03otzUXpgLPP-37" target="GKaw1PrU03otzUXpgLPP-39" edge="1">
          <mxGeometry relative="1" as="geometry" />
        </mxCell>
        <mxCell id="GKaw1PrU03otzUXpgLPP-42" value="commit" style="edgeLabel;html=1;align=center;verticalAlign=middle;resizable=0;points=[];fontSize=12;fontColor=#000000;" parent="GKaw1PrU03otzUXpgLPP-40" vertex="1" connectable="0">
          <mxGeometry x="-0.2" y="-2" relative="1" as="geometry">
            <mxPoint as="offset" />
          </mxGeometry>
        </mxCell>
        <mxCell id="GKaw1PrU03otzUXpgLPP-37" value="iavl tree" style="shape=trapezoid;perimeter=trapezoidPerimeter;whiteSpace=wrap;html=1;fixedSize=1;fontColor=#000000;rounded=0;labelBackgroundColor=none;" parent="1" vertex="1">
          <mxGeometry x="-790" y="430" width="120" height="60" as="geometry" />
        </mxCell>
        <mxCell id="GKaw1PrU03otzUXpgLPP-39" value="application" style="shape=cylinder3;whiteSpace=wrap;html=1;boundedLbl=1;backgroundOutline=1;size=15;labelBackgroundColor=none;fontSize=12;fontColor=#000000;" parent="1" vertex="1">
          <mxGeometry x="-760" y="530" width="60" height="80" as="geometry" />
        </mxCell>
      </root>
    </mxGraphModel>
  </diagram>
</mxfile>
